<?xml version="1.0" encoding="utf-8"?>
<!-- Generator: Adobe Illustrator 24.1.2, SVG Export Plug-In . SVG Version: 6.00 Build 0)  -->
<svg version="1.1"
	 id="svg2" xmlns:cc="http://creativecommons.org/ns#" xmlns:dc="http://purl.org/dc/elements/1.1/" xmlns:rdf="http://www.w3.org/1999/02/22-rdf-syntax-ns#" xmlns:svg="http://www.w3.org/2000/svg"
	 xmlns="http://www.w3.org/2000/svg" xmlns:xlink="http://www.w3.org/1999/xlink" x="0px" y="0px" viewBox="0 0 340.8 272.4"
	 style="enable-background:new 0 0 340.8 272.4;" xml:space="preserve">
<style type="text/css">
	.st0{fill:#74AA50;}
</style>
<g>
	<g id="g94" transform="translate(109.3657,211.2866)">
		<path id="path96" class="st0" d="M11.3-109.9c0,0,1.5-8.4,6.1-10.8c0,0,3.5-1.4,4.2-1.6c0.6-0.2-2.4,7.2-6.3,9.8L11.3-109.9z"/>
	</g>
	<g id="g98" transform="translate(107.6729,207.8774)">
		<path id="path100" class="st0" d="M10.7-101.9c0,0,2.1-3.6,2.6-5.4s1.1-5.7,1.2-6.1c0-0.4,0.1-4.3,0.1-4.3s-3.5,4.1-4,5.6
			c-0.5,1.4-1.4,5.2-1.1,7c0.2,1.8,0.8,3.9,0.8,3.9L10.7-101.9z"/>
	</g>
	<g id="g102" transform="translate(107.6177,208.1284)">
		<path id="path104" class="st0" d="M10.7-102.5c0,0,2.4-4.5,3.5-5.4s3.6-2,4.4-2.2c0.8-0.2,1.4-0.8,2.3-1.1
			c0.8-0.2,2.3-0.8,2.3-0.8s-2.2,4.8-3.8,6c-1.5,1.1-4.6,3.4-6.6,3.5c-1.9,0.1-1.9,0.2-1.9,0.2L10.7-102.5z"/>
	</g>
	<g id="g106" transform="translate(102.647,192.4131)">
		<path id="path108" class="st0" d="M9-65.9c0,0-3.2-2.5-3.5-5.5c-0.4-3-0.7-3.6,0.2-5.9c0.9-2.4,1.5-5.2,1.5-5.2S9-79.2,9-78.2
			c0,0.2,0.1,0.7,0.1,1.4c-0.6,2.2-1.1,4.6-0.9,6.7c0.2,1.7,0.5,2.7,0.8,3.3L9-65.9z"/>
	</g>
	<g id="g110" transform="translate(102.7666,192.5195)">
		<path id="path112" class="st0" d="M9.1-66.1c0,0-1.4-0.5-1.6-4.1c-0.2-3.6,2-8.4,3.5-10.3s1.9-2.3,1.9-2.3s0.6,6,0.3,8.5
			c-0.2,2.5-1.4,5.2-2,6.3C10.4-66.9,9.1-66.1,9.1-66.1"/>
	</g>
	<g id="g114" transform="translate(105.7217,200.5469)">
		<path id="path116" class="st0" d="M10-84.8c0,0,0.7-1.1,1.9-1.3c1.1-0.3,4.1-2.2,4.1-2.2s-1.3,6.9-3.8,9.5S7.5-74.3,6.1-74
			c-0.5,0.1-0.6,0-0.5-0.1s0.6-0.4,1-0.8C6.7-75,6.8-75,6.8-75.1c0.2-0.2,0.4-0.5,0.6-0.7c0.4-0.5,1-1.4,1.4-2.5
			c0.3-0.6,0.6-1.2,0.7-1.7c0.2-0.6,0.3-1.2,0.4-1.8c0-0.1,0-0.2,0-0.3c0-0.3,0.1-0.6,0.1-1.1l0,0V-84.8L10-84.8z"/>
	</g>
	<g id="g118" transform="translate(103.2422,175.582)">
		<path id="path120" class="st0" d="M9.2-26.6c0,0-4.6-2.9-5.5-8.1c-0.4-2.3-1.4-4.7-1.4-4.7s4.8,2.1,4.8,4.6
			c-0.1,1.5,0.2,1.4,0.4,2.5c0.2,1.2,1,3.6,1.6,5C9.2-26.9,9.2-26.6,9.2-26.6"/>
	</g>
	<g id="g122" transform="translate(103.3794,176.4653)">
		<path id="path124" class="st0" d="M9.3-28.7c0.2-1.2,1.6-3.8,1.6-7c0-3.2-3.7-8.8-3.7-8.8s-0.3,2-1,4.3s0.1,5.2,0.4,6.9
			C7-31.6,9-27.6,9-27.6C8.9-27.8,9.2-28.3,9.3-28.7"/>
	</g>
	<g id="g126" transform="translate(102.9404,175.5498)">
		<path id="path128" class="st0" d="M9.1-26.5c0,0,2.1-1.4,2.4-1.7c0.3-0.3,1.2-1.1,1.9-2.6c0.7-1.5,2.3-4.5,1.5-7.1
			c-0.7-2.3-0.7-3.6-0.7-3.6s-3.4,2-3.5,4.9c0,0.5,0.4,1.8,0.4,2.2c-0.1,2-0.8,3.8-1.4,5.1C9.4-27.8,9.1-26.5,9.1-26.5"/>
	</g>
	<g id="g130" transform="translate(110.3999,161.5146)">
		<path id="path132" class="st0" d="M11.6,6.2c0,0-6.9-0.2-9.2-4.7C0.9-1.6,0.3-3.2,0.3-3.2S4.8-2,6.1-0.1c0.6,1.3,1.4,2.4,2.1,3.2
			C9,4,9.9,5,11.1,5.8C11.4,6.1,11.6,6.2,11.6,6.2"/>
	</g>
	<g id="g134" transform="translate(110.3354,162.3008)">
		<path id="path136" class="st0" d="M11.6,4.4c-0.3-1.2-0.2-4.2-1.6-7.3c-1.4-3-5.9-5.8-5.9-5.8s0.3,1.1,0.5,3.6s1.5,5,2.5,6.4
			c1.1,1.4,4.8,4.3,4.8,4.3C11.7,5.4,11.7,4.8,11.6,4.4"/>
	</g>
	<g id="g138" transform="translate(110.2529,161.1938)">
		<path id="path140" class="st0" d="M11.6,7c0,0,1.4-2.1,1.5-2.5s0.7-1.4,0.7-3c0.1-1.7-0.2-4.9-1.3-7s-2.1-4.1-2.1-4.1
			S8.9-5.3,9.9-2.1c0.2,0.4,0.4,0.8,0.5,1.2C11,1,11.1,2.8,11.1,4.3C11.4,5.7,11.6,7,11.6,7"/>
	</g>
	<g id="g142" transform="translate(121.1997,150.7051)">
		<path id="path144" class="st0" d="M15.2,31.5c0,0-6,2-9.4-1.3c-3-2.9-3.8-3.4-3.8-3.4s4.2-0.6,5.4,0.2c0.9,1,1.9,1.8,2.7,2.3
			c0.9,0.6,3.2,1.3,4.6,1.8L15.2,31.5z"/>
	</g>
	<g id="g146" transform="translate(120.7876,151.2324)">
		<path id="path148" class="st0" d="M15.1,30.2c-0.6-0.9-1.1-3.3-3.1-5.4c-1.9-2.1-7.7-3.6-7.7-3.6s0.5,0.9,1.3,2.8
			c0.8,1.9,3.1,4.4,4.3,5.3c1.3,0.9,5.8,1.8,5.8,1.8C15.3,31,15.3,30.5,15.1,30.2"/>
	</g>
	<g id="g150" transform="translate(121.0811,150.6035)">
		<path id="path152" class="st0" d="M15.2,31.7c0,0,0.7-2.1,0.7-2.5c0-0.3,0.2-1.3-0.2-2.7c-0.4-1.4-1.6-4-3.2-5.4
			c-1.6-1.4-3.1-2.8-3.1-2.8s0.4,5.8,1.7,6.8c0.3,0.3,0.6,0.6,0.8,0.9c1.1,1.4,1.7,2.4,2.1,3.6C14.6,30.7,15.2,31.7,15.2,31.7"/>
	</g>
	<g id="g154" transform="translate(165.3799,151.3594)">
		<path id="path156" class="st0" d="M29.9,29.9c-0.1,0.3-0.1,0.7-0.2,1.4c-0.1,0.7-0.5,0.7-0.8,1.2c-0.2,0.5,0,0.5,0,1.5
			c-0.1,1-1.2,1.9-2,2.7c-0.7,0.7-2.3,1.1-2.7,1.1c-0.5,0.3-1.4,0.8-1.8,0.8c-0.4,0-1.1,0.2-1.8,0.3s-1.2,0.5-1.2,0.5l0.2-0.3
			c0,0,0.6-0.9,1.1-1.1c0.5-0.2,0.8-0.2,0.8-0.2s0.1-0.3,0.7-0.9c0.5-0.6,2-1.4,2.5-1.5c0.4-0.1,0.7-0.2,0.8-0.4
			c0-0.2,0.1-0.5,0.3-0.7c0.2-0.4,0.7-0.3,0.7-0.3s-0.3-0.8-0.2-1.2c0.1-0.5,0.9-1.2,1.2-1.2s0.3-0.1,0.3-0.3s0.5-1.1,0.9-1.4
			c0.3-0.3,1.5-0.6,1.5-0.6C30.3,29.2,30,29.6,29.9,29.9"/>
	</g>
	<g id="g158" transform="translate(182.2207,160.8276)">
		<path id="path160" class="st0" d="M35.5,7.8c0,0,0.1-0.5,0.2-1.3c0-0.9,0-1.8,0-2.4c-0.1-0.6,0.2-1.5,0.2-1.5s1.4-1.9,1.3-3.1
			c0-1.2,0.1-2,0.1-2s0.7-0.3,0.9-1.7s-0.5-2.9-0.6-3.7c-0.1-0.8,0.2-1.2,0-2.4c-0.3-1.2-0.7-3-1.1-3.7c-0.5-0.7-1-1.8-1-1.8
			s0.2,2.7-0.2,3.3c-0.5,0.6-1.2,2.7-1.2,3.5s0,1.3,0,1.3s-0.8,1.5-0.8,3s0.5,3,0.5,3s-0.1-0.7-0.1,0.8s1.1,4.6,1.2,5.9
			c0,1.3,0.4,2.7,0.4,2.7L35.5,7.8z"/>
	</g>
	<g id="g162" transform="translate(198.7607,181.0083)">
		<path id="path164" class="st0" d="M41.1-39.3c-0.1,0.2,0.2,1.5-0.8,2.4c-0.9,0.9-2.4,2-2.4,2s-0.2,2.2-1.2,3.1
			c-1.1,0.9-2.2,1.5-2.2,1.5s-0.6,1.8-1.5,2.5c-1,0.7-2.8,1.5-2.8,1.5s0.2,1-0.8,1.7c-0.9,0.7-3.2,1.5-3.7,1.7
			c-0.4,0.3-1.5,0.7-1.5,0.7s1.2-0.8,1.3-1.6c0.1-0.8,0.4-2.5,0.6-2.8c0.2-0.3,2.6-6.1,3.5-7s1.4-1.9,1.4-1.9s0.8-0.5,1.1-0.7
			s0.2-1.1,1.3-1.9s2.8-2.3,3.3-2.6c0.4-0.3,1-0.4,1-0.4l0.4,0.2c0,0,1.7-1.1,3.6-1.7C41.5-42.5,41.3-39.7,41.1-39.3"/>
	</g>
	<g id="g166" transform="translate(170.001,149.7437)">
		<path id="path168" class="st0" d="M31.5,33.7c0,0,0.1-0.7,0.8-2.3c0.6-1.7,2-7.5,3.7-7.6c0,0,2-1.9,2.5-3.5
			c0.5-1.7,0.6-1.9,0.5-2.6c0-0.7-0.1-2,0.7-2.9c0.8-0.8,1.2-1.2,1.1-2c0-0.9,0.4-2.4,0.4-2.4s0.3,1,0.6,2.2
			c0.1,0.3,0.2,0.8,0.3,1.3v0.6c0,0.2,0,0.7,0,1.4s0.3,2.7,0.2,3.7c0,0.2-0.2,1-0.2,1.5s-1.3,2-0.9,2.3c0.3,0.4-0.5,1-0.5,1.1
			s-2.1,1.7-2.4,2.1c-0.7,1.3-2.9,2.7-2.9,2.7l-0.6,0.6c-0.9,0.9-1.2,1.4-1.3,1.7c-0.2,0.5-1,1.4-1,1.4L31.5,33.7z"/>
	</g>
	<g id="g170" transform="translate(193.8447,167.9766)">
		<path id="path172" class="st0" d="M39.4-8.8c0,0-0.5,0.9-1.6,1.2s-3,0-4.1,0.2s-3.6,1.7-4.3,2.6c-0.6,0.8-0.9,2.1-1.1,2.6
			c-0.3,0.5-0.3,1-0.3,1S27.8-1,26.4,0c-1.4,1-2,4.4-2,4.4s-0.1,0-0.8,0.1s-1.4,0.7-2.1,1.1c-0.6,0.4-1.2,0.9-1.7,1
			s-0.7,0.3-1.1,0.5c-0.3,0.1-1.1,0.6-1.1,0.6s0.8,0.4,2.4,0.4c1.6,0,4.3,0,6.2-0.5C28.1,7.2,28,5.4,28,5.4s0.1-0.5,1-0.8
			c1-0.4,1.9-1.4,2.2-2.2C31.5,1.6,31,0.6,31,0.6s0.2,0,0.5-0.6c0.4-0.6,1-1.5,1.1-2.6c0.1-1,1-1.7,1-1.7s0,0,0.1,0h0.1
			c0,0,3.9,0,4.8-2.3C39.6-9.1,39.4-8.8,39.4-8.8"/>
	</g>
	<g id="g174" transform="translate(166.5703,147.7217)">
		<path id="path176" class="st0" d="M30.3,38.4c0,0,1.1,0.7,1.5,1c0.5,0.3,1.5,0.7,2.5,0.7c1,0.1,3.8,0,5.1-0.5
			c1.3-0.5,1.7-0.8,1.9-1c0.2-0.3,0.3-0.5,0.3-0.5s0.6-0.1,0.9-0.1c0.4,0,1.9,0.4,3.1-0.3c1.1-0.7,2-1.9,2.1-2.4s0.1-0.6,0.2-0.7
			c0.2-0.1,0.7,0.1,1.3-0.3c0.6-0.4,1-0.4,1.4-1.4s0.6-1.2,0.9-1.7s0.5-0.5,0.7-1c0.1-0.5-0.1-0.4,0.2-0.8c0.3-0.3,0.2-0.3,0.2-0.3
			s-1,0.7-1.8,1c-0.7,0.3-2,0.4-2.6,0.9s-0.8,0.8-0.8,0.8l-0.2,0.3c0,0-2-0.2-2.8,0.2c-0.9,0.4-1.6,0.7-2.1,1.4
			c-0.4,0.7-0.7,0.9-0.7,0.9s-1.7,0-2.9,0.7c-1.2,0.6-1.6,1.3-2.5,2.1c-0.8,0.8-1,0.9-1.7,1s-2.2,0.2-2.6,0.2
			c-0.4,0-0.7-0.3-0.7-0.4C31.5,37.8,30.3,38.4,30.3,38.4"/>
	</g>
	<g id="g178" transform="translate(156.6572,143.8711)">
		<path id="path180" class="st0" d="M27,47.4c0,0,1.3-0.1,2,0.4c0.7,0.4,1.8,0.9,2.4,1.2c0.5,0.2,1.7,0.9,2.8,0.5s1.2-0.8,1.2-0.8
			s0.4-0.1,0.5-0.1s0.5,0.3,1.1,0.1c0.6-0.3,0.6-0.5,1.3-0.8c0.8-0.3,1.1-0.5,1.4-0.6s0.5,0.1,0.7-0.5s0.7-1.2,0.9-1.6
			c0.2-0.4,0.3-0.6,0.3-0.6s-1.1,0.6-2.1,0.9c-0.9,0.2-1.1,0-1.7,0.2c-0.7,0.1-1.7,0.9-1.8,1.1c-0.2,0.2-0.4-0.5-1.2-0.4
			s-1,0-1.3,0.2c-0.2,0.1-0.4,0.3-0.6,0.3c-0.2,0-0.5-0.3-1-0.3c-0.5,0.1-0.9,0.2-1.3,0.3c-0.4,0.1-1.2-0.3-1.5-0.3
			c-0.2,0-0.9-0.3-1.2-0.2C27.7,46.3,27,47.4,27,47.4"/>
	</g>
	<g id="g182" transform="translate(182.9629,211.1763)">
		<path id="path184" class="st0" d="M35.8-109.6c0,0-2.8-0.6-4.3-1.8c-1.5-1.2-2.9-1.5-3.4-1.8s-2.8-1.1-2.8-1.1s2.8-1.1,4-0.3
			c1.1,0.9,2.1,1.6,2.4,1.6c0.3,0.1,1.5,0.6,2.5,1.4C35.2-110.9,35.8-109.6,35.8-109.6"/>
	</g>
	<g id="g186" transform="translate(179.8789,215.5229)">
		<path id="path188" class="st0" d="M34.8-119.8c0,0-2-1.2-3.1-2.1c-1.1-1-2-2.1-2-2.1l-0.4-0.4c0,0,0.7,0.1,1-0.2
			c0.3-0.3,0.3-0.5,0.7-0.5s0.5,0.3,0.6,0c0.1-0.4,0.1-0.9,0.1-0.9s1.6,2.8,2,3.4c0.4,0.5,1.4,1.7,1.4,2.2
			C35-120,34.8-119.8,34.8-119.8"/>
	</g>
	<g id="g190" transform="translate(181.6904,216.9253)">
		<path id="path192" class="st0" d="M35.4-123.1c0,0-0.2-0.3-0.4-1.2c-0.2-0.8-0.5-2.1-0.5-2.5h0.2c0,0,0.4,0.2,0.5,0.2
			s0.5-0.4,0.5-0.4l0.2-0.1c0,0.7,0.2,3.3,0.1,3.7c-0.2,0.5-0.2,0.7-0.3,0.6S35.4-123.1,35.4-123.1"/>
	</g>
	<g id="g194" transform="translate(183.7305,214.1738)">
		<path id="path196" class="st0" d="M36-116.6c0-0.1,0.1-0.9-0.1-1.7c-0.2-0.7-0.3-1.4-0.4-1.6l-0.2-0.1c0.1,0.1,0.3,0.1,0.3,0.1
			s0.3,0.1,0.5,0.3c0.3,0.2,0.2,0.1,0.2,0.1s0.5,0,0.7-0.1s0.2-0.1,0.4-0.2c-0.1,0.4-0.6,1.9-0.7,2.4c-0.1,0.5-0.2,0.9-0.5,1
			C36-116.4,36-116.6,36-116.6"/>
	</g>
	<g id="g198" transform="translate(175.8047,218.8882)">
		<path id="path200" class="st0" d="M33.4-127.6c0,0,0-0.2-0.3,0c-0.4,0.1-0.5-0.2-0.5-0.3c-0.1,0-0.3,0-0.2-0.2
			c0-0.2,0.2,0.3,0-0.2c-0.2-0.5-0.8-0.4-0.2-0.7s0.4-0.1,0.9-0.4s-0.2-0.4,0.2-0.7c0.4-0.3,0.7-0.4,0.9-0.4s0.1,0,0.6-0.1
			c0.6-0.1,0.8-0.9,0.8-0.3c0.1,0.6,0.4,0.5,0.3,0.7v0.5c0,0.2-0.1,0.2,0,0.5s0,0.7,0,0.7s0,0.4-0.3,0.3c-0.4-0.1-0.3-0.2-0.6,0
			s-0.2,0.3-0.4,0.4s-0.4,0.3-0.4,0.3L33.4-127.6z"/>
	</g>
	<g id="g202" transform="translate(183.0811,216.7368)">
		<path id="path204" class="st0" d="M35.8-122.6c-0.1,0-0.3,0-0.5-0.3s-0.7-0.6-0.2-0.8c0.5-0.2,0.6-0.1,0.6-0.4s-0.2-0.6,0.1-0.4
			c0.4,0.2,0.4,0.2,0.6,0.1c0.3-0.1,0.2-0.1,0.6-0.1c0.4,0,0.4-0.5,0.6-0.3c0.2,0.2,0.1,0.1,0.5,0.3c0.4,0.2,0.3,0,0.5,0.3
			c0.2,0.2,0.2,0.1,0.3,0.5s-0.1,0,0.1,0.4s0.7,0.3,0.2,0.5s-0.5,0.4-0.8,0.5s-0.3,0.1-0.5,0.2s-0.7,0.1-0.7,0.1s0.1,0.1-0.2,0
			c-0.2-0.2-0.6-0.4-0.6-0.4S35.9-122.6,35.8-122.6"/>
	</g>
	<g id="g206" transform="translate(181.0137,219.6343)">
		<path id="path208" class="st0" d="M35.1-129.4c0,0-0.1-0.2-0.4-0.1c-0.3,0.2-0.4-0.1-0.5-0.2c-0.2-0.1,0,0.2-0.3-0.1
			s0-0.4-0.3-0.3c-0.2,0.1-0.4,0.2,0-0.2s0.7-0.2,0.6-0.6c-0.1-0.4-0.3-0.3,0-0.4c0.4-0.1,0.3-0.1,0.6-0.2c0.2-0.1-0.3-0.1,0.5-0.2
			c0.8-0.2,0.7-0.2,1,0s0.5,0.4,0.6,0.4c0,0.1-0.1,0.6,0.4,0.6c0.4,0,0.7,0.1,0.4,0.3c-0.4,0.2-0.4,0.3-0.6,0.4
			c-0.2,0.1-0.7,0.3-0.7,0.3s-0.4,0.4-0.5,0.4c-0.2,0-0.6-0.2-0.6-0.2L35.1-129.4z"/>
	</g>
	<g id="g210" transform="translate(185.2695,207.6533)">
		<path id="path212" class="st0" d="M36.6-101.4c-1-1.4-2.5-3.7-3.1-4.7c0,0-0.8-1.2-1.8-2c0,0-0.5-0.9-1.4-1.8
			c-0.8-0.9-2.1-3.1-2.6-3.4c-0.2-0.2,0.6,0.4,0.4,0.2c0.5,0.3,0.9,0.6,0.9,0.6s0.2-0.2,0.2-0.6v-0.2c0,0,0.1,0.1,0.1,0.2
			c0.3,0.3,0.5,0.7,0.8,1.1c0.4,0.7,1.4,2,1.7,2.3c0.2,0.3,0.3-1.3,0.1-2.1c-0.1-0.8-0.2-2.2-0.2-2.2l-0.2-1.3v0.3
			c0.2,0.9,0.4,1.2,0.4,1.2s0.2,0.2,0.4,0.3c0,0,0.1,0,0.1-0.1c0,0.5,0.1,0.8,0.1,1.1c0.2,0.9,0.7,3.8,0.9,4.3c0.2,0.6,1.2,2,1.2,2
			s0-1,0-1.6s-0.1-1.5,0-2.3l0,0c0,0,0.1,0.2,0.3,0.1c0.3-0.1,0.4-0.7,0.4-0.5c-0.2,0.8,0,3.2,0.4,4.6c0.4,1.5,1,2.9,1,2.9"/>
	</g>
	<g id="g214" transform="translate(188.6191,200.2061)">
		<path id="path216" class="st0" d="M37.7-84c0,0,0.6-3,0.3-4.1c-0.4-1.1-0.8-2-0.8-2.5c0.1-0.6,0.4-0.9,0.4-0.9s-1.5-3.7-1.3-4.9
			c0.2-1.3,0.3-1.3,0.2-1.5s-0.9-1.5-0.6-2.9c0.2-1.3,0.6-3.1,0.6-3.1s1.3,2.4,2.1,4.1c0,0,2.1,1.8,2.7,3.3c0.6,1.6,0.3,3,0.2,3.4
			c-0.1,0.4,0.2,2.5-0.2,3.8c-0.4,1.3-2.5,4.9-2.8,5.7c-0.4,0.9-0.3,1.2-0.3,1.2L37.7-84z"/>
	</g>
	<g id="g218" transform="translate(184.8203,197.4697)">
		<path id="path220" class="st0" d="M36.4-77.7c-0.1-0.5-1.3-3.7-1.1-6.3c0.2-2.5-1.3-4.8-2.1-5.3l-0.7-0.5c0,0,0.4-0.5-0.3-2.1
			c-0.7-1.5-2.2-3.9-2.2-3.9s-0.7,4.7,0.7,8c1.5,3.3,2.5,5,2.7,5.8c0.2,0.7,1.9,3.5,2.5,3.8L36.4-77.7z"/>
	</g>
	<g id="g222" transform="translate(183.9414,202.0151)">
		<path id="path224" class="st0" d="M36.1-88.3c0,0,1.6,0.8,2.4,1.6c0.9,0.9,2.4,2.2,2.7,2.5c0.4,0.3,0.7,0,1.5,1.5s1.6,5,1.6,5
			s-1.9-0.8-2.9-1.5c-1-0.7-4.2-3.1-4.2-3.1s-0.6-2.1-0.7-2.5c-0.1-0.3-0.4-2.6-0.4-2.8C36.1-87.6,36.1-88.3,36.1-88.3z"/>
	</g>
	<g id="g226" transform="translate(186.542,180.0254)">
		<path id="path228" class="st0" d="M37-37c0,0,0.4-2.2,0.2-3.1c-0.2-0.9-0.7-1.6-0.5-2c0.3-0.8,0.7-2.2,0.9-3.9
			c0.4-2.7,0-4.1-0.2-5.1s-0.3-2.5-0.2-3.5c0.1-0.9,0-1.3,0-1.3s-2.1,1.8-2.7,4c-0.6,2.3-2.3,8.2-0.7,11.2s1.6,1.8,1.9,2.2
			C36.1-38.2,37-37,37-37"/>
	</g>
	<g id="g230" transform="translate(185.9834,186.6978)">
		<path id="path232" class="st0" d="M36.8-52.5c0,0,1.9,1.3,2,2.9C38.9-48.1,39-48,39-48s0.9,1,0.9,2s0,1.8-0.2,2.8s0,1.8,0,1.8
			s0.3,2.1,0.7,2.7c0.4,0.6,0.2,1,0.2,1l0.2,0.8c0,0-1.3-1-1.7-1.8c-0.4-0.8-2-2.7-2.4-3.7c-0.5-1-1-3.5-1-3.5s0.7-2.1,0.7-3
			c-0.1-0.9-0.6-1.4-0.6-1.4S36.2-51.2,36.8-52.5"/>
	</g>
	<g id="g234" transform="translate(197.3408,197.292)">
		<path id="path236" class="st0" d="M40.6-77.2c-0.4,1-0.2,1.6-0.8,3c-0.7,1.4-0.7,1.9-0.7,1.9s1.1,0.6,0.4,2.8
			c-0.7,2.1-1.7,3.2-1.7,3.2l-0.3,0.6c0,0-0.5,2.7-1.2,3.9c-0.8,1.2-4,4-4,4l-1.5,0.4c0,0,0.9-1.2,0.9-2.7c-0.1-1.4-0.4-3.2-0.2-4.1
			c0.2-0.9,0.8-3.4,0.8-3.4s0.3-2.9,0.4-3.8c0.2-0.9,1.9-2.4,1.9-2.4s-0.1-2.7,0.7-3.6c0.6-0.6,1.4-1.5,2.3-1.9
			c0.4-0.4,1.2-1.2,1.9-1.5c0,0,0.5,1.3,0.7,2.1C40.4-77.9,40.6-77.2,40.6-77.2"/>
	</g>
	<g id="g238" transform="translate(121.0811,149.6577)">
		<path id="path240" class="st0" d="M15.2,33.9c0,0.8-0.6,1.5-1.4,1.5c-0.8,0-1.5-0.6-1.5-1.4c0-0.8,0.6-1.5,1.4-1.6
			C14.5,32.4,15.1,33.1,15.2,33.9"/>
	</g>
	<g id="g242" transform="translate(122.6187,150.3203)">
		<path id="path244" class="st0" d="M15.7,32.4c0,0.8-0.6,1.5-1.4,1.5c-0.8,0-1.5-0.6-1.5-1.4c0-0.8,0.6-1.5,1.4-1.6
			C14.9,30.9,15.6,31.5,15.7,32.4"/>
	</g>
	<g id="g246" transform="translate(123.4238,151.6021)">
		<path id="path248" class="st0" d="M15.9,29.4c0,0.8-0.6,1.5-1.4,1.5c-0.8,0-1.5-0.6-1.6-1.4c0-0.8,0.6-1.5,1.4-1.6
			C15.2,27.9,15.9,28.5,15.9,29.4"/>
	</g>
	<g id="g250" transform="translate(135.0757,144.3711)">
		<path id="path252" class="st0" d="M19.8,46.2c0,0-4.5,3.6-8.6,1.8c-3.6-1.6-4.3-1.7-4.3-1.7s3.3-1.8,4.7-1.5
			c1.1,0.6,2.2,1,3.1,1.2c1,0.2,3.2,0.1,4.5,0.1L19.8,46.2z"/>
	</g>
	<g id="g254" transform="translate(134.5723,144.7021)">
		<path id="path256" class="st0" d="M19.7,45.5c-0.7-0.6-2-2.5-4.4-3.7c-2.3-1.2-7.8-0.7-7.8-0.7s0.7,0.6,2,2s4,2.9,5.4,3.3
			c1.4,0.4,5.5-0.3,5.5-0.3C20.1,46,19.9,45.6,19.7,45.5"/>
	</g>
	<g id="g258" transform="translate(135.0488,144.2559)">
		<path id="path260" class="st0" d="M19.8,46.5c0,0-0.1-2-0.2-2.4c-0.1-0.3-0.2-1.2-1-2.3s-2.6-3-4.5-3.7c-1.8-0.7-3.6-1.5-3.6-1.5
			s2.3,4.9,3.6,5.4c0.4,0.1,0.7,0.3,1,0.5c1.4,0.9,2.2,1.5,3,2.4C19,45.8,19.8,46.5,19.8,46.5"/>
	</g>
	<g id="g262" transform="translate(135.3232,143.4463)">
		<path id="path264" class="st0" d="M19.9,48.4c0.3,0.7-0.1,1.5-0.8,1.8s-1.5,0-1.8-0.7s0.1-1.5,0.8-1.8S19.6,47.7,19.9,48.4"/>
	</g>
	<g id="g266" transform="translate(136.439,144.4932)">
		<path id="path268" class="st0" d="M20.3,45.9c0.3,0.7,0,1.5-0.8,1.8c-0.7,0.3-1.5,0-1.8-0.8c-0.3-0.7,0.1-1.5,0.8-1.8
			C19.2,44.9,20,45.2,20.3,45.9"/>
	</g>
	<g id="g270" transform="translate(136.731,145.8584)">
		<path id="path272" class="st0" d="M20.4,42.8c0.3,0.7,0,1.5-0.7,1.8s-1.5-0.1-1.8-0.8s0-1.5,0.7-1.8
			C19.3,41.7,20.1,42.1,20.4,42.8"/>
	</g>
	<g id="g274" transform="translate(109.7495,160.6123)">
		<path id="path276" class="st0" d="M11.4,8.3c0.1,0.8-0.4,1.6-1.2,1.7c-0.9,0.1-1.6-0.4-1.7-1.2C8.4,8,8.9,7.2,9.8,7.1
			C10.5,7,11.3,7.5,11.4,8.3"/>
	</g>
	<g id="g278" transform="translate(111.4702,160.8721)">
		<path id="path280" class="st0" d="M12,7.7c0.1,0.8-0.4,1.6-1.2,1.7S9.2,8.9,9.1,8.1C9,7.3,9.5,6.5,10.4,6.4
			C11.1,6.4,11.8,6.9,12,7.7"/>
	</g>
	<g id="g282" transform="translate(113.2095,161.8618)">
		<path id="path284" class="st0" d="M12.5,5.4c0.1,0.8-0.4,1.6-1.3,1.7c-0.8,0.1-1.6-0.4-1.7-1.3C9.4,5,9.9,4.2,10.7,4.1
			C11.7,4,12.4,4.6,12.5,5.4"/>
	</g>
	<g id="g286" transform="translate(102.73,175.2754)">
		<path id="path288" class="st0" d="M9-25.9c-0.1,0.8-1,1.3-1.8,1.2c-0.8-0.2-1.4-1-1.1-1.8c0.1-0.8,1-1.3,1.8-1.2
			C8.7-27.5,9.3-26.7,9-25.9"/>
	</g>
	<g id="g290" transform="translate(104.4507,174.9004)">
		<path id="path292" class="st0" d="M9.6-25c-0.1,0.8-1,1.3-1.8,1.2c-0.8-0.2-1.3-1-1.1-1.8c0.2-0.8,1-1.3,1.8-1.2
			C9.3-26.6,9.8-25.8,9.6-25"/>
	</g>
	<g id="g294" transform="translate(106.4922,175.2124)">
		<path id="path296" class="st0" d="M10.3-25.7c-0.2,0.8-1,1.3-1.8,1.2c-0.8-0.2-1.4-1-1.1-1.8c0.1-0.8,1-1.3,1.8-1.2
			C10-27.3,10.5-26.5,10.3-25.7"/>
	</g>
	<g id="g298" transform="translate(102.0513,191.938)">
		<path id="path300" class="st0" d="M8.8-64.8c-0.3,0.8-1.1,1.2-1.9,1c-0.8-0.3-1.2-1.1-0.9-1.9c0.2-0.8,1.1-1.2,1.9-1
			C8.6-66.4,9.1-65.5,8.8-64.8"/>
	</g>
	<g id="g302" transform="translate(103.5073,191.2417)">
		<path id="path304" class="st0" d="M9.3-63.1c-0.3,0.8-1.1,1.2-1.9,1c-0.8-0.2-1.2-1.1-0.9-1.9c0.3-0.8,1.1-1.2,1.9-1
			C9.1-64.7,9.5-63.9,9.3-63.1"/>
	</g>
	<g id="g306" transform="translate(104.917,191.1636)">
		<path id="path308" class="st0" d="M9.8-62.9c-0.2,0.8-1.1,1.2-1.9,1C7.1-62.2,6.7-63,7-63.8c0.2-0.8,1.1-1.2,1.8-1
			C9.6-64.6,10.1-63.7,9.8-62.9"/>
	</g>
	<g id="g310" transform="translate(107.3525,207.5435)">
		<path id="path312" class="st0" d="M10.6-101.2c-0.4,0.7-1.3,0.9-2.1,0.5c-0.7-0.4-0.9-1.3-0.5-2s1.3-1,2.1-0.5
			C10.8-102.8,11-101.9,10.6-101.2"/>
	</g>
	<g id="g314" transform="translate(108.3491,207.1636)">
		<path id="path316" class="st0" d="M10.9-100.3c-0.4,0.7-1.3,1-2,0.5c-0.7-0.4-0.9-1.3-0.5-2.1c0.4-0.7,1.3-1,2-0.5
			S11.4-101,10.9-100.3"/>
	</g>
	<g id="g318" transform="translate(110.1074,207.2417)">
		<path id="path320" class="st0" d="M11.5-100.5c-0.4,0.7-1.3,0.9-2,0.5s-1-1.3-0.5-2c0.4-0.7,1.3-1,2-0.5
			C11.7-102.1,11.9-101.2,11.5-100.5"/>
	</g>
	<g id="g322" transform="translate(161.4805,182.5835)">
		<path id="path324" class="st0" d="M28.6-42.9l0.5,0.8l0.1-1c0-0.1,0-0.1,0.1-0.1l1-0.2l-0.9-0.4c-0.1,0-0.1,0-0.1-0.1l0.1-1
			l-0.6,0.7c0,0-0.1,0-0.2,0l-0.8-0.3l0.4,0.8v0.1l-0.7,0.8L28.6-42.9C28.6-43,28.6-43,28.6-42.9"/>
	</g>
	<g id="g326" transform="translate(158.3135,182.624)">
		<path id="path328" class="st0" d="M27.6-43l0.3,0.9l0.4-0.9c0,0,0-0.1,0.1-0.1h1l-0.8-0.6v-0.1l0.3-0.9l-0.8,0.5H28l-0.7-0.6
			l0.2,0.9c0,0.1,0,0.1-0.1,0.1l-0.9,0.6L27.6-43C27.6-43.1,27.6-43.1,27.6-43"/>
	</g>
	<g id="g330" transform="translate(155.1475,183.7329)">
		<path id="path332" class="st0" d="M26.5-45.6l-0.1,0.7l0.6-0.6c0,0,0,0,0.1,0l0.7,0.3l-0.4-0.7c0,0,0-0.1,0.1-0.1l0.5-0.6
			l-0.7,0.2c0,0,0,0-0.1-0.1l-0.4-0.6l-0.1,0.7v0.1l-0.8,0.2L26.5-45.6C26.5-45.7,26.5-45.6,26.5-45.6"/>
	</g>
	<g id="g334" transform="translate(155.0557,183.6636)">
		<path id="path336" class="st0" d="M26.5-45.4l-0.1,1l0.7-0.7h0.1l0.9,0.4l-0.5-0.9v-0.1l0.7-0.7l-1,0.2c0,0-0.1,0-0.1-0.1
			l-0.5-0.8l-0.1,0.9c0,0,0,0.1-0.1,0.1l-1,0.2l0.9,0.4C26.5-45.5,26.5-45.5,26.5-45.4"/>
	</g>
	<g id="g338" transform="translate(152.4473,185.564)">
		<path id="path340" class="st0" d="M25.6-49.9L25.2-49l0.9-0.5c0.1,0,0.1,0,0.1,0l0.7,0.6l-0.2-1c0-0.1,0-0.1,0-0.1l0.8-0.5l-1-0.1
			c-0.1,0-0.1,0-0.1-0.1l-0.2-0.9l-0.4,0.8l-0.1,0.1l-1-0.1l0.8,0.7C25.6-50,25.7-49.9,25.6-49.9"/>
	</g>
	<g id="g342" transform="translate(150.79,187.9795)">
		<path id="path344" class="st0" d="M25.1-55.5l0.4,0.9l0.2-1c0-0.1,0.1-0.1,0.1-0.1l1-0.1l-0.9-0.5v-0.1l0.2-1l-0.7,0.7h-0.1
			l-0.8-0.5l0.4,0.9v0.1l-0.7,0.7L25.1-55.5C25-55.6,25.1-55.6,25.1-55.5"/>
	</g>
	<g id="g346" transform="translate(149.8755,191.1602)">
		<path id="path348" class="st0" d="M24.8-62.9l0.1,1l0.5-0.9c0,0,0-0.1,0.1,0l0.9,0.2l-0.6-0.8v-0.1l0.4-0.8l-0.9,0.4h-0.1
			l-0.6-0.7l0.1,0.9c0,0,0,0.1-0.1,0.1l-0.9,0.5L24.8-62.9C24.7-63,24.8-63,24.8-62.9"/>
	</g>
	<g id="g350" transform="translate(150.2866,194.2725)">
		<path id="path352" class="st0" d="M24.9-70.2l0.8,0.5l-0.4-0.9c0-0.1,0-0.1,0-0.1l0.8-0.6h-1c0,0-0.1,0-0.1-0.1l-0.4-0.9l-0.2,0.9
			c0,0.1-0.1,0.1-0.1,0.1h-1l0.7,0.5c0,0,0.1,0.1,0,0.1l-0.2,1l0.8-0.6C24.8-70.2,24.9-70.2,24.9-70.2"/>
	</g>
	<g id="g354" transform="translate(151.3584,197.4937)">
		<path id="path356" class="st0" d="M25.3-77.7l0.5,0.8v-1l0.1-0.1l0.9-0.3l-0.9-0.3l-0.1-0.1v-1l-0.5,0.8c0,0-0.1,0.1-0.2,0
			l-0.9-0.3l0.5,0.8c0,0.1,0,0.1,0,0.1l-0.6,0.8l1-0.3C25.2-77.8,25.2-77.8,25.3-77.7"/>
	</g>
	<g id="g358" transform="translate(153.3633,199.9653)">
		<path id="path360" class="st0" d="M25.9-83.5l0.3,0.9l0.3-0.9l0.1-0.1h1l-0.7-0.6c0,0-0.1-0.1,0-0.1l0.3-0.9l-0.7,0.6
			c-0.1,0-0.1,0-0.2,0l-0.7-0.6l0.2,0.9v0.1l-1,0.6L25.9-83.5C25.9-83.6,25.9-83.5,25.9-83.5"/>
	</g>
	<g id="g362" transform="translate(156.0908,201.5488)">
		<path id="path364" class="st0" d="M26.8-87.2v1l0.5-0.8c0,0,0.1-0.1,0.2,0l0.9,0.2l-0.6-0.8v-0.1l0.5-0.8l-0.9,0.3
			c-0.1,0-0.1,0-0.1,0l-0.6-0.7v0.9c0,0.1,0,0.1-0.1,0.1l-1,0.4L26.8-87.2C26.8-87.3,26.8-87.2,26.8-87.2"/>
	</g>
	<g id="g366" transform="translate(159.5771,202.0557)">
		<path id="path368" class="st0" d="M28-88.4l0.8,0.5l-0.3-0.9v-0.1l0.7-0.6h-1c-0.1,0-0.1,0-0.1-0.1l-0.3-0.8l-0.3,0.9
			c0,0.1,0,0.1-0.1,0.1h-1l0.8,0.5v0.1l-0.3,1l0.8-0.7C27.9-88.4,27.9-88.4,28-88.4"/>
	</g>
	<g id="g370" transform="translate(162.7246,201.5845)">
		<path id="path372" class="st0" d="M29-87.3l0.6,0.8v-1v-0.1l0.9-0.3l-1-0.3v-0.1l-0.1-1l-0.5,0.8c0,0-0.1,0.1-0.1,0l-0.9-0.3
			l0.6,0.8v0.1L27.9-87L29-87.3C28.9-87.3,29-87.3,29-87.3L29-87.3z"/>
	</g>
	<g id="g374" transform="translate(165.5635,200.0928)">
		<path id="path376" class="st0" d="M30-83.8l0.2,1l0.4-0.9l0.1-0.1h1l-0.8-0.6v-0.1l0.3-0.9l-0.8,0.5h-0.1l-0.7-0.6l0.2,0.9v0.1
			l-1,0.6l1,0.1C29.9-83.8,29.9-83.8,30-83.8"/>
	</g>
	<g id="g378" transform="translate(167.6865,197.7275)">
		<path id="path380" class="st0" d="M30.7-78.3v1l0.6-0.8h0.1l0.9,0.3l-0.5-0.9v-0.1l0.6-0.8l-0.9,0.3h-0.1l-0.6-0.8v0.9v0.1l-1,0.4
			L30.7-78.3C30.7-78.4,30.7-78.3,30.7-78.3"/>
	</g>
	<g id="g382" transform="translate(169.2607,194.5186)">
		<path id="path384" class="st0" d="M31.2-70.8l0.7,0.6l-0.2-1v-0.1l0.8-0.5l-1-0.1c0,0-0.1,0-0.1-0.1l-0.1-0.9L30.9-72
			c0,0,0,0.1-0.1,0.1l-1-0.1l0.7,0.6v0.1l-0.4,1l0.9-0.5C31.1-70.8,31.2-70.8,31.2-70.8"/>
	</g>
	<g id="g386" transform="translate(169.4082,191.4448)">
		<path id="path388" class="st0" d="M31.3-63.6l0.5,0.8l0.1-1c0,0,0-0.1,0.1-0.1l1-0.2l-0.9-0.4L32-64.6l0.1-1l-0.6,0.7h-0.1
			l-0.9-0.4l0.4,0.8v0.1l-0.7,0.8l1-0.2C31.2-63.7,31.2-63.6,31.3-63.6"/>
	</g>
	<g id="g390" transform="translate(168.5469,188.2764)">
		<path id="path392" class="st0" d="M31-56.2l0.2,0.9l0.4-0.9c0,0,0-0.1,0.1-0.1h1L32-56.9c0,0-0.1-0.1,0-0.1l0.3-0.9l-0.8,0.5h-0.1
			L30.7-58l0.2,0.9v0.1l-1.1,0.6l1,0.1C30.9-56.3,31-56.3,31-56.2"/>
	</g>
	<g id="g394" transform="translate(167.1553,185.564)">
		<path id="path396" class="st0" d="M30.5-49.9l0.9,0.5L31-50.3c0-0.1,0-0.1,0-0.1l0.7-0.7l-1,0.1c-0.1,0-0.1,0-0.1,0l-0.4-0.9
			l-0.2,1c0,0,0,0.1-0.1,0.1L29-50.7l0.8,0.5v0.1l-0.2,1l0.7-0.7C30.4-49.9,30.5-49.9,30.5-49.9"/>
	</g>
	<g id="g398" transform="translate(164.583,183.6226)">
		<path id="path400" class="st0" d="M29.7-45.4l0.7,0.7l-0.1-1v-0.1l0.9-0.4l-1-0.2c0,0-0.1,0-0.1-0.1l-0.2-1l-0.4,0.9l-0.1,0.1
			l-1-0.2L29-46c0.1,0,0.1,0.1,0,0.1l-0.4,1l0.9-0.4C29.6-45.4,29.7-45.4,29.7-45.4"/>
	</g>
	<g id="g402" transform="translate(158.9639,186.8525)">
		<path id="path404" class="st0" d="M27.8-52.9l-1.4,1.8h5.1L30-52.9v-15.5l1.4-1.8h-5.1l1.4,1.8L27.8-52.9L27.8-52.9z"/>
	</g>
	<g id="g406" transform="translate(154.0225,193.52)">
		<path id="path408" class="st0" d="M26.1-68.4l-1.8-1.4v5.1l1.8-1.4h15.5l1.8,1.4v-5.1l-1.8,1.4H26.1z"/>
	</g>
	<g id="g410" transform="translate(159.7871,187.2793)">
		<path id="path412" class="st0" d="M28.1-53.9c-3.9,0-7.1-3.2-7.1-7.2s3.2-7.2,7.1-7.2c4,0,7.2,3.2,7.2,7.2S32-53.9,28.1-53.9
			 M28.1-67.8c-3.6,0-6.7,3-6.7,6.7s3,6.7,6.7,6.7s6.7-3,6.7-6.7S31.8-67.8,28.1-67.8"/>
	</g>
	<g id="g414" transform="translate(159.7871,187.2793)">
		<path id="path416" class="st0" d="M28.1-53.9c-2.5,0-4.5-3.2-4.5-7.2s2-7.2,4.5-7.2s4.5,3.2,4.5,7.2S30.6-53.9,28.1-53.9
			 M28.1-67.7c-2.2,0-3.9,3-3.9,6.7c0,3.7,1.7,6.7,3.9,6.7s4-3,4-6.7C32-64.7,30.3-67.7,28.1-67.7"/>
	</g>
	<g id="g418" transform="translate(159.7881,195.6357)">
		<path id="path420" class="st0" d="M28.1-73.4h-5.8v0.5h5.8H34v-0.5H28.1z"/>
	</g>
	<g id="g422" transform="translate(159.7881,190.1021)">
		<path id="path424" class="st0" d="M28.1-60.5h-5.8v0.5h5.8h5.8v-0.5H28.1z"/>
	</g>
	<g id="g426" transform="translate(162.6611,188.29)">
		<path id="path428" class="st0" d="M29-56.2l-8.6-10.9l1-0.8L30-57L29-56.2z"/>
	</g>
	<g id="g430" transform="translate(173.6631,215.9082)">
		<path id="path432" class="st0" d="M32.7-120.7H16.9L17-121c0-0.2,1.1-3.2,1.6-5.7c0.3-1.3,0.5-2.1,0.7-2.5
			c0.2-0.4,0.4-0.6,0.9-0.8c0.4-0.2,0.7-0.3,0.9-0.3c0.4-0.1,0.5-0.2,0.5-0.4c0-0.1-0.3-0.3-0.8-0.4c-0.4-0.1-0.7-0.2-1.1-0.3
			c-0.4-0.1-0.8-0.1-1.2,0c-0.2,0-0.5,0.1-0.7,0.3c0.3-2.5,0.4-6.5-0.4-9.9c0,0-0.8-2-0.4-2.7c0.3-0.8,1-1.4,1-1.4v-0.1l0,0
			c0,0-2.1-1.4-3,0.4c0.1,0,0.1-0.1,0.1-0.1c-1-2.4-2.3-4.6-3.7-6.7c-3.5-5-8-8.8-11.8-10.7c0.3-0.4,0.4-0.9,0.4-1.4
			c0-1.3-1-2.4-2.2-2.6v-2c1.2,0.3,2.3,1.1,2.3,1.1v-3c-1.2,0.9-1.9,0.9-2.3,0.9c0.2-1.2,0.9-2.2,0.9-2.2h-2.9
			c0.9,1.3,0.9,1.8,0.9,2.2c-1.1,0-2.3-0.9-2.3-0.9v3c1-0.8,1.8-1.1,2.3-1.2v2c-1.2,0.2-2.2,1.3-2.2,2.6c0,0.5,0.1,1,0.4,1.4
			c-3.8,1.9-8.3,5.7-11.9,10.8c-1.5,2.1-2.7,4.3-3.7,6.7c-1-1.5-2.9-0.2-2.9-0.2l0,0v0.1c0,0,0.7,0.6,1,1.4c0.3,0.8-0.4,2.7-0.4,2.7
			l0,0c-0.9,3.4-0.7,7.4-0.5,9.9c-0.2-0.1-0.4-0.2-0.6-0.2c-0.4-0.1-0.8,0-1.2,0c-0.4,0.1-0.8,0.2-1.1,0.3c-0.5,0.1-0.8,0.3-0.8,0.4
			c0,0.2,0.1,0.3,0.5,0.4c0.2,0.1,0.5,0.2,0.9,0.3l0,0c0.4,0.2,0.6,0.4,0.8,0.8c0.2,0.5,0.4,1.2,0.7,2.5c0.5,2.5,1.6,5.5,1.6,5.7
			l0.1,0.3h-15.2c0,0,0.2,67.6,0.1,73.6c-0.1,6,7,6.6,7,6.6s8.8,0.1,17.8,0.3c9.1,0.1,10.6,6,10.6,6l0.4-0.8c3.3-6,9.3-5.1,9.3-5.1
			s11.6-0.2,19-0.3s6.7-8.2,6.7-8.2L32.7-120.7z M5.5-141.2L5.5-141.2C5.6-141.2,5.6-141.2,5.5-141.2 M4.3-142.8
			c0.2,0.5,0.6,1.1,0.9,1.4c-0.1,0-0.3-0.1-0.4-0.1c-0.4-0.1-0.7,0-0.8,0.4c-0.1,0.5,0.1,1.1,0.4,1.7c0.3,0.5,0.6,0.9,0.8,1.1
			c-0.2,0-0.6,0.1-0.8,0.9c-0.2,0.9,0.7,2.1,1.1,2.6c-0.4-0.1-0.9-0.1-1.1,0.6s0.3,1.8,0.7,2.7c0.2,0.4,0.4,0.8,0.5,1.2
			c-0.1,0-0.2,0-0.3,0.1c-0.7,0.3-0.5,0.9-0.4,1.3c0,0.1,0,0.1,0.1,0.2l0,0v0.2c-0.2-0.1-0.5-0.3-1-0.2c-0.8,0.1-0.8,0.6-0.8,0.7
			v0.1c0,0,0.4,0.3,0.7,0.7c0.3,0.2,0.9,1.2,1,2c0,0.2,0,0.3,0,0.5c0,0.1-0.1,0.3-0.2,0.4l0,0c-0.2,0.3-0.5,0.5-0.9,0.6
			c-0.2,0.1-0.5,0.1-0.7,0.1s-0.4-0.1-0.6-0.2s-0.3-0.3-0.4-0.5l0,0c-0.1-0.4-0.1-0.6-0.3-0.5c0,0-0.1,0.1-0.1,0.2
			c0,0.3-0.2,0.9-0.9,0.9c-0.1,0-0.2,0-0.2,0c-0.3,0-0.7-0.1-1-0.3c-0.3-0.2-0.5-0.5-0.5-0.8v-0.1c0-0.6,0.4-1.3,0.9-1.8
			c0.1-0.1,0.2-0.2,0.3-0.3c0.1-0.1,0.2-0.1,0.3-0.2l0,0l0,0c0.4-0.2,0.5-0.1,0.6-0.1c0,0,0,0,0.1,0c0.1-0.1,0.1-0.1,0-0.2
			c0,0,0,0-0.1-0.1c0-0.3-0.3-0.9-0.8-1.1c-0.1,0-0.2-0.1-0.3-0.1c-0.1,0-0.2,0-0.4,0c0,0,0,0-0.1,0c0.3-0.4,0.5-0.9-0.3-1.3l0,0
			c0,0-0.4-0.1-0.8,0.1c0.3-0.5,0.6-1.1,0.9-1.5c0.4-0.7,0.8-1.4,0.9-2c0-0.6-0.3-1-1.3-0.9c0.5-0.7,2.1-3.2,1-3.6
			c-0.4-0.1-0.8-0.2-1-0.1c0.7-0.9,2-2.9,1-3.5c0,0-0.5-0.2-1,0c0.7-0.9,1.9-2.8,0.5-3.1c0,0-0.5,0-1,0.2l-0.4-16.6
			c0,0,4.9,7.9,5.8,16.8C3.8-144,4-143.4,4.3-142.8 M-4.7-144.5c-0.4-0.2-1-0.2-1-0.2l0,0c-1.4,0.3-0.2,2.2,0.5,3.1
			c-0.5-0.2-0.9,0-0.9,0l0,0c-0.9,0.5,0.4,2.5,1.1,3.4c-0.2,0-0.6,0-0.9,0.1c-1.1,0.4,0.5,2.9,1,3.6c-1-0.1-1.4,0.3-1.3,0.9
			c0,0.6,0.4,1.3,0.8,2c0.3,0.4,0.6,1,0.9,1.5c-0.4-0.2-0.7-0.1-0.7-0.1l0,0c-0.8,0.4-0.6,0.9-0.3,1.3h-0.1
			c-0.7-0.2-1.1,0.3-1.4,0.7c0,0.1-0.1,0.2-0.1,0.2c0,0.1-0.1,0.1-0.1,0.2s0,0.1,0,0.1c-0.1,0.1-0.1,0.1,0,0.2l0,0h0.1
			c0,0,0.2-0.1,0.6,0.1c0.5,0.2,1.1,0.9,1.3,1.5c0,0.1,0.1,0.3,0.1,0.4s0,0.3,0,0.4v0.1c0,0.3-0.2,0.6-0.5,0.8
			c-0.3,0.2-0.6,0.3-1,0.3c0,0-0.1,0-0.2,0c-0.7-0.1-0.8-0.7-0.9-0.9c0-0.1,0-0.2-0.1-0.2c-0.2-0.1-0.2,0.1-0.4,0.5l0,0
			c0,0.2-0.2,0.4-0.4,0.5c-0.2,0.1-0.4,0.2-0.6,0.2c-0.2,0-0.5,0-0.7-0.1c-0.4-0.1-0.7-0.3-0.9-0.6c-0.5-0.6,0-1.6,0.4-2.3
			c0-0.1,0.1-0.2,0.2-0.3c0.1-0.1,0.1-0.2,0.2-0.2l0,0c0.4-0.4,0.7-0.7,0.7-0.7v-0.1c0,0,0-0.5-0.8-0.7c-0.5-0.1-0.8,0.1-1,0.2
			c0-0.1,0-0.1,0-0.2c0-0.1,0-0.1,0-0.2c0.1-0.4,0.3-0.9-0.4-1.3c-0.1-0.1-0.1-0.1-0.2-0.1c0.1-0.4,0.3-0.8,0.5-1.2
			c0.4-1,0.9-2,0.7-2.7s-0.7-0.7-1.1-0.6c0.4-0.6,1.3-1.7,1.1-2.6c-0.1-0.8-0.5-0.8-0.7-0.9c0.1-0.2,0.5-0.6,0.8-1.1
			s0.5-1.1,0.4-1.7c-0.1-0.5-0.4-0.5-0.8-0.4c-0.2,0-0.3,0.1-0.4,0.1c0.3-0.3,0.6-0.9,0.9-1.4c0.3-0.7,0.5-1.4,0.2-1.6l0,0
			c0.8-8.9,5.7-16.6,5.7-16.6L-4.7-144.5z M-11.2-138.3L-11.2-138.3C-11.3-138.3-11.2-138.3-11.2-138.3 M-11.6-141.2L-11.6-141.2
			C-11.5-141.2-11.5-141.2-11.6-141.2 M12.5-144.3c-0.3,0.3-0.2,0.8,0,1.3c0.1,0.2,0.3,0.5,0.4,0.7l0.1,0.1c0.2,0.3,0.5,0.6,0.7,0.9
			c-0.5-0.2-1.3-0.3-1.1,0.5c0.1,0.8,1,1.6,1.6,2.2c0.1,0.1,0.1,0.1,0.2,0.2c-0.2-0.1-0.3-0.2-0.5-0.2s-0.4,0-0.5,0.4l0,0
			c0,0.1,0,0.3,0,0.5s0.1,0.3,0.2,0.5c0.3,0.8,1,1.6,1.3,2c-0.2,0-0.5,0.1-0.6,0.6c-0.2,0.7,0.3,1.8,0.6,2.7
			c0.2,0.3,0.3,0.5,0.3,0.7v0.1c-0.1,0-0.2,0-0.3,0.1c-0.8,0.5-0.4,1.5-0.1,2.1c0,0.1,0.1,0.3,0.2,0.3c0,0.2-0.2,0.2-0.4,0.2
			s-0.3,0.1-0.5,0.1l0,0c-0.6,0.2-0.9,0.7-0.9,0.7l0,0c0,0,0,0.1,0.1,0.1c0,0,2.1,0.4,1.9,2c0,0.3-0.1,0.6-0.2,0.8
			c-0.1,0.3-0.3,0.5-0.5,0.6s-0.4,0.1-0.6,0.1c-0.2,0-0.4-0.1-0.5-0.2c-0.8-0.3-0.8-0.7-0.8-0.7s0-0.1-0.1-0.1s-0.1,0-0.1,0
			s-0.4,0.7-1.1,0.9c-0.2,0.1-0.5,0.1-0.8,0c-0.2,0-0.3-0.1-0.4-0.2c-0.1-0.1-0.2-0.3-0.2-0.4c-0.1-0.3-0.1-0.6,0-1.1
			c0.3-1.1,0.8-1.7,1.1-2c0.2-0.3,0.3-0.4,0.2-0.6c-0.2-0.2-0.6-0.1-1,0c-0.2,0-0.3,0-0.4,0l0,0c0,0,0-0.2,0-0.5c0-0.5,0-1-0.1-1.3
			c-0.1-0.2-0.3-0.3-0.6-0.1c-0.2,0-0.2,0.1-0.4,0.2c0.5-1.3,1.5-3.8,1.3-4.2c0-0.2-0.1-0.3-0.2-0.4c-0.1-0.1-0.2-0.2-0.3-0.3
			c-0.1-0.1-0.3-0.1-0.4-0.1l0,0c0-0.1,0.1-0.2,0.2-0.4c0.3-0.8,0.8-2.1,0.4-2.6c-0.4-0.5-0.9-0.5-1.3-0.5c0.5-0.8,1.9-3.2,0.5-3.4
			H8c0.3-0.5,1.1-2.1,0.5-2.8c-0.1-0.2-0.2-0.3-0.4-0.3c-0.2-0.1-0.3-0.1-0.6-0.1c-0.1,0-0.1,0-0.2,0.1c-0.1-0.4-3.1-11-6.3-14.9
			C1.2-159.8,8.5-153.8,12.5-144.3 M-20.8-145L-20.8-145L-20.8-145L-20.8-145L-20.8-145 M-21-132.1c0.4-0.8,0.9-2,0.7-2.7
			c-0.1-0.5-0.4-0.6-0.6-0.6c0.3-0.4,1-1.3,1.3-2c0.1-0.2,0.2-0.4,0.2-0.5c0-0.2,0.1-0.3,0-0.5c-0.1-0.4-0.3-0.4-0.5-0.4
			c-0.2,0-0.4,0.1-0.5,0.2c0,0,0.1-0.1,0.2-0.2c0.6-0.6,1.5-1.5,1.6-2.2c0.1-0.8-0.6-0.7-1.1-0.5c0.2-0.3,0.5-0.6,0.8-0.9l0.1-0.1
			c0.1-0.2,0.3-0.4,0.4-0.7c0.2-0.5,0.3-0.9,0-1.2c4-9.5,11.4-15.5,11.4-15.5c-3.2,3.8-6.1,14.2-6.3,14.8l-0.1-0.1
			c-0.2,0-0.4,0-0.6,0.1c-0.1,0.1-0.2,0.2-0.4,0.3c-0.6,0.6,0.2,2.3,0.5,2.8h-0.9l0,0c-1.4,0.2,0.1,2.6,0.5,3.4
			c-0.3-0.1-0.9,0-1.3,0.5c-0.4,0.5,0.1,1.8,0.5,2.6c0.1,0.2,0.1,0.3,0.2,0.4l0,0c-0.1,0-0.3,0-0.4,0.1c-0.1,0-0.2,0.2-0.3,0.3
			c-0.1,0.1-0.2,0.3-0.2,0.4c-0.1,0.4,0.9,2.9,1.4,4.2c-0.1-0.1-0.2-0.2-0.4-0.2c-0.3-0.1-0.5-0.1-0.6,0.1c-0.1,0.3-0.1,0.9-0.1,1.3
			c0,0.3,0.1,0.5,0,0.5c0,0-0.2,0-0.4,0c-0.4-0.1-0.8-0.2-1,0c-0.1,0.2,0,0.3,0.2,0.6c0.3,0.3,0.8,0.9,1.1,2
			c0.1,0.5,0.1,0.8,0.1,1.1c-0.1,0.2-0.2,0.3-0.3,0.4s-0.2,0.2-0.4,0.2c-0.3,0.1-0.5,0-0.8,0c-0.7-0.2-1-0.8-1-0.9
			c-0.1,0-0.1,0-0.1,0c-0.1,0-0.1,0-0.2,0.1c0,0,0,0.4-0.7,0.7c-0.2,0.1-0.4,0.1-0.6,0.2c-0.2,0-0.4,0-0.6-0.1
			c-0.2-0.1-0.4-0.3-0.5-0.6c-0.1-0.2-0.1-0.5-0.2-0.8c-0.2-1.6,1.9-2,1.9-2l0,0c0.1,0,0.1-0.1,0-0.1c0,0-0.3-0.5-0.9-0.7
			c-0.2-0.1-0.4-0.1-0.6-0.1c-0.3-0.1-0.4-0.1-0.4-0.2c0-0.1,0.1-0.2,0.1-0.3c0.3-0.6,0.7-1.5-0.1-2.1c-0.1-0.1-0.2-0.1-0.4-0.1
			c0-0.1,0-0.1,0-0.1C-21.2-131.5-21.1-131.8-21-132.1 M-4-117.8v48.2c-0.8,8.7-11.8,2.3-15.4,8.3c-2.4-6.3-15.5,0.8-15.6-8.3v-48.2
			H-4z M23.9-43.5H4.7c0,0-5.1-0.2-7.3,4.6c-2.3-4.8-7.4-4.6-7.4-4.6h-19.2c-5.9,0-5.7-4.8-5.7-4.8V-62c2.9,1.5,7,1,10.1,1
			c3.4,0.1,5.5,3.2,5.5,3.2c4-7.3,13.8,1.4,16.6-8.9c0.4,1.7,1.9,5.5,6.6,5.5l5.6,0.1c0,0,3,0.1,4.8,3.3c0,0,2.1-3.2,5.5-3.2
			c3.2-0.1,7,0.4,9.9-1.1v13.7C29.6-48.2,29.4-43.5,23.9-43.5 M29.7-69.6c-0.7,8.7-11.8,2.3-15.4,8.3c-2.4-6.4-15.5,0.7-15.5-8.3
			c0-4.5,0-48.2,0-48.2h31L29.7-69.6L29.7-69.6z"/>
	</g>
	<g id="g434" transform="translate(147.9897,159.3901)">
		<path id="path436" class="st0" d="M24.1,11.2c-2.7,0.3-4.7-1.7-4.7-1.7V-1.6h4.1c1.5,0,3.2,1,3.2,3c0,0.9-0.3,1.5-1,2
			C27,4,28,5,28,7.1C28.1,9.3,26.2,11,24.1,11.2L24.1,11.2z M21.2-0.2v3.3h2.3c0.8,0,1.2-0.9,1.2-1.8c0-0.8-0.6-1.5-1.5-1.5H21.2z
			 M21.2,4.4V9c0.5,0.4,1.6,0.9,2.5,0.8C25.1,9.6,26,8.5,26,7.2c0-1.2-0.8-2.9-2.6-2.8H21.2z"/>
	</g>
	<g id="g438" transform="translate(127.6255,199.25)">
		<path id="path440" class="st0" d="M17.3-81.8h7.3v-9h4.9v9h7.3v4.9h-7.3v18.8h-4.9v-18.8h-7.3V-81.8z"/>
	</g>
	<g id="g442" transform="translate(129.9321,185.4399)">
		<path id="path444" class="st0" d="M18.1-49.6l-2,5.1l-0.9,0.3l-2.1-5.2v5.1h-0.8v-7.1l1-0.3l2.5,5.8l2.2-5.7h1.2v7.2h-1.1
			C18.1-44.4,18.1-49.6,18.1-49.6z"/>
	</g>
	<g id="g446" transform="translate(141.5288,186.3047)">
		<path id="path448" class="st0" d="M22-51.6h-3.6l0.4-0.8h4.9L19.8-46h4.1v0.8h-5.8L22-51.6z"/>
	</g>
	<g id="g450" transform="translate(135.936,143.5801)">
		<path id="path452" class="st0" d="M20.1,48.1C-6.8,41.7-25.6,17.9-25.6-9.8c0-16.2,6.4-31.4,18.1-42.7l0.7,0.7
			c-11.4,11.2-17.8,26.1-17.8,42c0,27.2,18.5,50.6,44.9,56.9L20.1,48.1z"/>
	</g>
	<g id="g454" transform="translate(157.6006,143.8271)">
		<path id="path456" class="st0" d="M27.3,47.5l-0.3-1c25.7-6.7,43.7-30,43.7-56.5c0-15.6-6.1-30.3-17.1-41.3l0.8-0.7
			c11.1,11.2,17.3,26.1,17.3,42C71.7,17,53.4,40.7,27.3,47.5"/>
	</g>
	<g id="g458" transform="translate(138.8384,147.3467)">
		<path id="path460" class="st0" d="M21.1,39.3l0.3,0.7l0.7-0.1v6.2h1v-7.5L21.1,39.3z"/>
	</g>
	<g id="g462" transform="translate(143.2114,142.0205)">
		<path id="path464" class="st0" d="M22.5,51.7L22.2,51c1.5-0.4,2.5-0.9,2.5-2.2c0-0.8-0.5-1.4-1.3-1.5c-0.3,0-0.9,0-1.8,0v-3.2h3.5
			l-0.4,0.8h-1.9v1.6c0.4,0,0.5,0,0.8,0c1.5,0,2.3,1.2,2.2,2.4c0,1.1-0.5,1.7-1.2,2.1C24,51.4,23.3,51.5,22.5,51.7"/>
	</g>
	<g id="g466" transform="translate(149.9297,142.252)">
		<path id="path468" class="st0" d="M24.8,51.2l-1,0.3v-2.6h-3.1l3.1-4.9l1-0.3v4.5h0.9V49h-0.9V51.2z M22.2,48.2h1.6v-2.6
			L22.2,48.2z"/>
	</g>
	<g id="g470" transform="translate(155.2012,143.7256)">
		<path id="path472" class="st0" d="M26.5,47.7c-0.3,1-1,1.6-1.7,2c-0.4,0.2-0.9,0.3-1.5,0.4L23,49.4c1.3-0.2,2.3-0.6,2.5-1.9
			c0-0.2,0.1-0.5,0.1-0.7c-0.4,0.2-0.9,0.4-1.5,0.4c-1.3,0-2.2-1.2-2.1-2.5c0.1-1.3,0.7-2.4,2.5-2.4c1,0,1.7,0.5,2.1,1.5
			c0.1,0.4,0.3,1.3,0.2,2.2C26.8,46.7,26.7,47.2,26.5,47.7L26.5,47.7z M24.4,46.4c0.6,0.1,1.2-0.4,1.4-0.5c0.1-1.9-0.5-2.8-1.3-2.8
			C22.8,43,22.6,46.3,24.4,46.4"/>
	</g>
	<g id="g474" transform="translate(56.3291,104.9014)">
		<path id="path476" class="st0" d="M-6.4,138.3c-2,1.3-4,1.8-6.7,1.8c-3.6,0-7.3-1.8-9.6-4l2-3.1c2,1.6,4.9,3.3,7.6,3.3
			c2.1,0,2.9-0.3,4-1.2c1.3-1,2-2.2,2-3.7c0-2.2-1.3-3.6-4.7-4.7c-2.6-0.8-6.5-1.9-8.4-3.9c-1.3-1.4-1.8-3-1.8-5
			c0-5.3,4-8.9,9.8-8.9c3.3,0,5.6,1.3,8,3.1l-2,3.1c-1.9-1.4-3.5-2.3-5.8-2.3c-3.4,0-5.3,1.7-5.3,4.3c0,1.8,1.2,3,4.6,4.1
			c3.1,1,6.5,1.7,8.8,4.4c1.2,1.5,1.7,3.5,1.7,5.4C-2.2,133.8-3.8,136.5-6.4,138.3L-6.4,138.3z"/>
	</g>
	<g id="g478" transform="translate(69.9507,103.4912)">
		<path id="path480" class="st0" d="M-1.9,141.6c-3.8-0.1-7.1-3.2-7.1-7.2c0.1-4.3,3.4-6.8,7.5-6.8h5v-1.5c0-2-1.8-3.4-3.8-3.4
			c-1.9,0-3.4,0.5-5.6,1.6l-1.2-2.8c2.9-1.5,4.8-2,7.6-2c3.5,0,7.1,2.3,7.1,6.5l0.1,11.9C5.6,140,2.3,141.7-1.9,141.6L-1.9,141.6z
			 M-0.5,130.8c-2.3,0-4,1.4-4,3.6c0,2.1,1.7,4,4.1,4.1c1.6,0,3.2-0.8,3.8-1.4v-6.2L-0.5,130.8z"/>
	</g>
	<g id="g482" transform="translate(93.5322,114.5088)">
		<path id="path484" class="st0" d="M6,115.9c0-2.8-1.7-4.3-4.5-4.2c-1.6,0.1-3.1,0.7-4.1,1.4v17.2H-7v-18.2c2-1.4,3.5-2.4,5.7-3.1
			c1.7-0.5,4.1-0.9,6.6-0.4c2.6,0.6,5,2.5,5,5.6v16H5.9v-14.3H6z"/>
	</g>
	<g id="g486" transform="translate(104.4341,117.3906)">
		<path id="path488" class="st0" d="M9.6,109.2H7.3V106h2.3v-5.5l4.3-1.6v7h3.7v3.2h-3.7v12.8c0,2.3,1.1,2.8,3.7,3v2.7
			c-5,0.5-8-1.7-8-5.5V109.2z"/>
	</g>
	<g id="g490" transform="translate(121.6709,103.4912)">
		<path id="path492" class="st0" d="M15.4,141.6c-3.9-0.1-7.1-3.2-7.1-7.2c0.1-4.3,3.4-6.8,7.5-6.8h5v-1.5c0-2-1.8-3.4-3.8-3.4
			c-1.9,0-3.3,0.5-5.6,1.6l-1.2-2.8c2.8-1.5,4.8-2,7.7-2.1c3.5,0,7.1,2.3,7.1,6.5v11.9C22.9,140,19.5,141.7,15.4,141.6L15.4,141.6z
			 M16.8,130.8c-2.3,0-4,1.4-4,3.6c0,2.1,1.7,4,4.1,4.1c1.6,0,3.2-0.8,3.8-1.4v-6.2L16.8,130.8z"/>
	</g>
	<g id="g494" transform="translate(144.165,103.5967)">
		<path id="path496" class="st0" d="M22.9,141.4c-8,0-12.2-9.2-12-15.9c0.2-7,4.1-15.4,12.3-15.2c3.4,0.1,6.4,0.8,9.2,2.8l-1.8,2.8
			c-2.5-1.6-4.6-2.1-6.9-2.1c-10.5,0-9.8,23.8-0.2,23.8c2.4,0,3.9-0.6,5.9-1.7c0.7-0.4,1.4-0.8,2.7-1.5l1.7,2.8
			C30.2,140.2,26.8,141.4,22.9,141.4L22.9,141.4z"/>
	</g>
	<g id="g498" transform="translate(163.0986,103.4912)">
		<path id="path500" class="st0" d="M29.2,141.6c-3.9-0.1-7.1-3.2-7.1-7.2c0.1-4.3,3.4-6.8,7.5-6.8h5v-1.5c0-2-1.8-3.4-3.8-3.4
			c-1.9,0-3.3,0.5-5.6,1.6l-1.2-2.8c2.9-1.5,4.8-2,7.6-2.1c3.5,0,7.1,2.3,7.1,6.5v11.9C36.6,140,33.3,141.7,29.2,141.6L29.2,141.6z
			 M30.6,130.8c-2.3,0-4,1.4-4,3.6c0,2.1,1.7,4,4.1,4.1c1.6,0,3.2-0.8,3.8-1.4v-6.2L30.6,130.8z"/>
	</g>
	<g id="g502" transform="translate(176.2051,105.3506)">
		<path id="path504" class="st0" d="M33.5,137.3l1.7-2.8c1.7,1.4,3.7,2,5.4,2c2.1,0,4.3-1,4.2-3c0-1.7-1.7-2.2-3-2.7
			c-0.6-0.2-1.3-0.5-1.9-0.8c-2.9-1.1-5.8-2.2-5.8-6c0-4.3,3.8-6.5,7.5-6.5c2.1,0,4.2,0.7,6.5,2.1l-1.6,2.9
			c-1.9-1.1-3.3-1.5-4.7-1.5c-1.8,0-3.5,0.9-3.5,2.7c0,0.8,0.5,1.4,1.4,1.8c1,0.5,2.4,1,3.7,1.5c1.3,0.5,2.6,1,3.7,1.9
			c1.2,0.9,2.2,2.3,2.1,4.4c-0.1,4.7-4.5,6.8-8.5,6.8C38.2,139.9,35.8,139,33.5,137.3"/>
	</g>
	<g id="g506" transform="translate(198.5937,103.4912)">
		<path id="path508" class="st0" d="M41,141.6c-3.9-0.1-7.1-3.2-7.1-7.2c0.1-4.3,3.4-6.8,7.5-6.8h5v-1.5c0-2-1.8-3.4-3.8-3.4
			c-1.9,0-3.3,0.5-5.6,1.6l-1.2-2.8c2.9-1.5,4.8-2,7.6-2.1c3.5,0,7.2,2.3,7.2,6.5v11.9C48.5,140,45.2,141.7,41,141.6L41,141.6z
			 M42.4,130.8c-2.3,0-4,1.4-4,3.6c0,2.1,1.6,4,4.1,4.1c1.7,0,3.2-0.8,3.8-1.4v-6.2L42.4,130.8z"/>
	</g>
	<g id="g510" transform="translate(221.3584,103.5605)">
		<path id="path512" class="st0" d="M48.6,141.5c-6.3,0.6-11.1-4.1-11.1-4.1v-26.5h9.6c3.8,0,7.7,2.3,7.6,7.1c0,2.1-0.8,3.6-2.4,4.9
			c3.1,1.4,5.5,3.9,5.6,8.7C58,136.9,53.6,140.9,48.6,141.5L48.6,141.5z M41.8,114.2v7.8h5.4c2,0,3-2.2,3-4.2c0-1.9-1.6-3.5-3.6-3.7
			L41.8,114.2L41.8,114.2z M41.8,125.3v10.9c1.1,0.9,3.6,2.3,5.8,1.9c3.3-0.5,5.4-3.2,5.4-6.2c0-2.9-1.8-6.8-6.3-6.6L41.8,125.3
			L41.8,125.3z"/>
	</g>
	<g id="g514" transform="translate(245.8682,110.5957)">
		<path id="path516" class="st0" d="M56.8,125H46.2l-3.4,9.1h-3.6L50,104.4l4-1.3l10.4,31h-4.6L56.8,125z M47.4,121.8h8.3L51.8,110
			L47.4,121.8z"/>
	</g>
	<g id="g518" transform="translate(270.248,87.2891)">
		<path id="path520" class="st0" d="M64.9,179.4h-328.3V24.3L-99.3-81.4L64.9,24.3V179.4z M-98.9-87.1l-0.4-0.2L-268.8,21.2
			l-0.3,0.2v163.7H70.6V21.4L-98.9-87.1z"/>
	</g>
</g>
</svg>
